# xmcd
#
# Track frame offsets: 
#        150
#        13192
#        24882
#        36270
#        47795
#        58807
#        69395
#        81592
#        92385
#        104790
#        115392
#        125645
#        137265
#        149405
#        162455
#
# Disc length: 2317 seconds
#
# Revision: 1
# Processed by: cddbd v1.5.2PL0 Copyright (c) Steve Scherf et al.
# Submitted via: ExactAudioCopyFreeDBPlugin 1.0
#
DISCID=d7090b0f
DTITLE=Betty Everett - There'll Come A Time
DYEAR=1969
DGENRE=Blues
TTITLE0=You're Falling In Love
TTITLE1=Better Tomorrow Than Today
TTITLE2=Maybe
TTITLE3=1900 Yesterday
TTITLE4=Sugar
TTITLE5=I Need A Change
TTITLE6=I Can't Say No to You
TTITLE7=Hold On
TTITLE8=There'll Come A Time
TTITLE9=Take Me
TTITLE10=Is There a Chance For Me?
TTITLE11=The Same Old Me
TTITLE12=It's Been A Long Time
TTITLE13=Just A Man's Way
TTITLE14=Unlucky Girl
EXTD=YEAR: 1969
EXTT0=
EXTT1=
EXTT2=
EXTT3=
EXTT4=
EXTT5=
EXTT6=
EXTT7=
EXTT8=
EXTT9=
EXTT10=
EXTT11=
EXTT12=
EXTT13=
EXTT14=
PLAYORDER=
